<?xml version="1.0" encoding="utf-8"?>
<!-- Generator: Adobe Illustrator 18.1.1, SVG Export Plug-In . SVG Version: 6.00 Build 0)  -->
<svg version="1.1" id="Layer_1" xmlns="http://www.w3.org/2000/svg" xmlns:xlink="http://www.w3.org/1999/xlink" x="0px" y="0px"
	 width="612px" height="792px" viewBox="0 0 612 792" enable-background="new 0 0 612 792" xml:space="preserve">
<rect x="-621.4" y="-531.4" fill-rule="evenodd" clip-rule="evenodd" fill="none" stroke="#FFFFFF" stroke-miterlimit="10" width="1854.8" height="1854.8"/>
<g>
	<g>
		<path fill="#AD1F81" d="M174.2,493.4h-6c-1.5-4.3-4.1-8.6-7.9-12.9c-3.7-4.4-7.4-7-11.1-7.7c-1.6-0.4-3.8-0.6-6.6-0.7
			c-2.8-0.1-5.1-0.1-7-0.1h-16.2v43.3h11.5c2.9,0,5.5-0.4,7.9-1c2.4-0.7,4.5-2,6.5-4c1.2-1.2,2.4-3.3,3.7-6.4c1.2-3,2-5.7,2.4-8h6
			v46.7h-6c-0.3-2.2-1.1-5-2.4-8.4c-1.3-3.3-2.5-5.6-3.7-6.9c-1.8-1.9-3.8-3.2-6.2-3.9c-2.4-0.7-5.1-1.1-8.2-1.1h-11.5v32.3
			c0,3.4,0.2,6,0.7,8c0.5,2,1.5,3.5,2.8,4.6c1.3,1,3.1,1.6,5.4,2c2.3,0.3,5.4,0.5,9.3,0.5c1.9,0,4.1,0,6.6-0.1
			c2.6,0,4.8-0.2,6.8-0.5c2.2-0.3,4.3-0.7,6.2-1.2c1.9-0.5,3.4-1.3,4.3-2.3c2.5-2.6,5.4-6.5,8.5-11.8c3.2-5.3,5.3-9.2,6.2-11.9h5.8
			l-2.1,34.9H74.9v-6.2c1.5-0.1,3.5-0.3,6-0.6c2.5-0.3,4.3-0.7,5.4-1.1c2-0.8,3.3-1.9,4-3.2c0.7-1.3,1.1-2.9,1.1-4.9v-79
			c0-1.9-0.3-3.5-0.9-4.7c-0.6-1.2-2-2.3-4.2-3.3c-1.4-0.6-3.3-1.2-5.8-1.8c-2.5-0.5-4.3-0.9-5.6-1v-6.1h99.3V493.4L174.2,493.4z
			 M236.5,579.9c-6.8,0-13.2-0.8-19.1-2.5c-5.9-1.7-10.9-3.7-15-6l-5.4,5.5h-6.7l-1-40.5h6.8c1.5,3.9,3.5,7.9,5.8,12.1
			c2.4,4.3,5.1,8.1,8.2,11.4c3.2,3.5,6.8,6.4,10.8,8.6c4,2.2,8.6,3.3,13.9,3.3c7.2,0,12.6-1.8,16.5-5.2c3.8-3.5,5.7-7.9,5.7-13.2
			c0-4.4-1.6-8-4.8-11c-3.2-3-8.2-5.5-15-7.7c-4.4-1.4-8.5-2.7-12.2-4c-3.7-1.2-7.2-2.5-10.5-3.7c-7.5-3-13.1-7.3-16.8-12.9
			c-3.7-5.6-5.5-11.8-5.5-18.7c0-4.4,0.9-8.5,2.8-12.6c1.9-4,4.7-7.6,8.3-10.9c3.5-3,7.9-5.4,13.3-7.3c5.4-1.9,11.3-2.9,17.7-2.9
			c6.2,0,12,0.9,17.5,2.6c5.4,1.7,9.7,3.4,12.8,5.2l4.8-4.7h6.9l0.6,38.2h-6.8c-1.6-4.1-3.4-8.3-5.6-12.6c-2.1-4.3-4.4-7.8-6.8-10.7
			c-2.6-3-5.5-5.5-8.9-7.3c-3.4-1.8-7.3-2.7-11.8-2.7c-5.7,0-10.3,1.6-13.9,4.8c-3.6,3.2-5.4,7.2-5.4,11.9c0,4.5,1.6,8.1,4.7,11
			c3.1,2.8,8,5.3,14.6,7.5c3.9,1.3,7.9,2.6,11.9,4c4.1,1.3,7.7,2.6,10.8,3.8c7.6,3,13.4,7,17.4,12.2c4,5.2,6,11.6,6,19.3
			c0,4.8-1.1,9.5-3.4,14.1c-2.3,4.5-5.3,8.3-9.2,11.3c-4.2,3.3-9.1,5.8-14.6,7.7C250.3,579,243.8,579.9,236.5,579.9z"/>
		<path fill="#00A5B0" d="M407.4,576.9h-61v-6.2c2.9-0.2,6.2-0.7,10-1.5c3.9-0.8,5.8-1.8,5.8-3c0-0.4,0-0.9-0.1-1.4
			c-0.1-0.5-0.3-1.2-0.7-2.1l-9.6-23.2h-38.7c-0.9,2.2-1.9,4.7-3,7.6c-1.1,2.9-2,5.5-2.8,7.7c-1,2.9-1.6,5.1-1.8,6.4
			c-0.2,1.3-0.3,2.2-0.3,2.8c0,1.7,1.3,3.1,3.8,4.3c2.6,1.2,6.8,2,12.7,2.6v6.2H276v-6.2c1.7-0.1,3.7-0.4,5.9-0.8
			c2.2-0.5,3.9-1.1,5.2-1.9c2.2-1.3,4-2.8,5.5-4.7c1.5-1.8,2.7-4,3.7-6.5c6.1-14.8,12.2-29.6,18.3-44.4
			c6.1-14.8,12.9-31.2,20.3-49.1h15.8c10.3,25.4,18.4,45.4,24.2,60.2c5.8,14.7,10.8,26.9,14.9,36.6c0.7,1.6,1.6,3,2.6,4.3
			c1.1,1.3,2.6,2.5,4.5,3.7c1.5,0.8,3.2,1.5,5.1,1.9c1.9,0.4,3.7,0.7,5.3,0.8V576.9L407.4,576.9z M348.6,531.6L332.4,491l-16,40.6
			H348.6L348.6,531.6z M537.1,576.9h-42.9c-7.4-11.4-13.6-20.4-18.5-27.2c-4.9-6.7-11-14.5-18.3-23.4h-4.3v34c0,1.9,0.4,3.5,1.1,4.8
			c0.7,1.3,2.1,2.4,4.1,3.3c1,0.4,2.6,0.9,4.7,1.3c2.1,0.4,4,0.8,5.5,0.9v6.2h-59.8v-6.2c1.5-0.1,3.5-0.4,6-0.6
			c2.5-0.3,4.3-0.6,5.3-1.1c2-0.8,3.3-1.9,4-3.2c0.7-1.3,1.1-2.9,1.1-4.9v-79c0-1.9-0.3-3.5-0.9-4.7c-0.6-1.3-2-2.4-4.2-3.3
			c-1.7-0.7-3.7-1.3-6-1.8c-2.3-0.5-4.1-0.8-5.4-1v-6.1h62.8c14.1,0,24.7,2.2,32,6.6c7.3,4.4,10.9,11,10.9,19.9
			c0,7.8-2.3,14.1-6.8,18.9c-4.5,4.8-11.3,8.5-20.6,11.2c3.6,4.6,7.8,10,12.5,16.1c4.7,6.1,9.7,12.3,14.9,18.7
			c1.6,2.1,3.9,4.6,6.7,7.5c2.8,3,5.3,4.8,7.5,5.5c1.2,0.4,2.7,0.7,4.6,0.9c1.9,0.3,3.2,0.4,4,0.5V576.9L537.1,576.9z M483.3,493.6
			c0-7.5-2.1-12.9-6.3-16.4c-4.2-3.4-10.2-5.2-17.9-5.2h-6.2V519h6c7.7,0,13.7-2,18-6.1C481.2,508.8,483.3,502.4,483.3,493.6z"/>
	</g>
	<path d="M97.4,592.8c-0.4,0.6-0.8,1.5-1.5,2.7c-0.2,0.6-0.5,1.3-1.1,2.4c-0.1,0.2-0.2,0.2-0.4,0.2c0,0-0.8-0.3-2.6-1
		c-1.8-0.6-3.2-1-4.3-1c-3.3,0-5,1.5-5,4.4c0,1.6,1.2,3,3.5,4.2c3.9,2,6.1,3.2,6.5,3.5c2.3,1.9,3.5,4.4,3.5,7.5c0,4-1.6,7.2-4.8,9.6
		c-2.9,2.1-6.4,3.1-10.6,3.1c-1.9,0-3-0.2-3.1-0.7c-0.1-0.7-0.2-1.7-0.5-3c-0.1-0.5-0.4-1.3-0.7-2.4c-0.1-0.2-0.1-0.3-0.1-0.5
		c0-0.3,0.1-0.4,0.4-0.4c0.4,0,1.1,0,2,0.1c0.9,0.1,1.6,0.1,2,0.1c5.6,0,8.4-1.8,8.4-5.4c0-1.8-1.1-3.3-3.4-4.6
		c-4.1-2.3-6.2-3.6-6.3-3.7c-2.3-1.8-3.4-4.3-3.4-7.4c0-3.4,1.1-6,3.3-8.1c2.1-1.9,4.9-2.9,8.3-2.9c1.4,0,3.1,0.2,5,0.7
		c2,0.5,3.6,1.2,4.6,1.9C97.2,592.5,97.3,592.6,97.4,592.8L97.4,592.8z M130.6,603.5c0,0.1,0,0.2-0.1,0.5c-0.7,4.1-1.1,7.7-1.1,10.7
		c0,0.2,0.2,4.2,0.7,12.1l0,0.4c0,0.5-0.2,0.8-0.7,0.8c-0.5,0-1.2,0.1-2.2,0.2c-1,0.1-1.7,0.2-2.2,0.2c-0.3,0-0.6-0.6-0.8-1.9
		c-0.2-1.3-0.4-1.9-0.5-1.9c-0.1,0-0.6,0.4-1.5,1.1c-1.1,0.9-2.1,1.5-3,2c-1.4,0.7-2.9,1.1-4.3,1.1c-3.5,0-6.4-1.4-8.8-4.2
		c-2.3-2.7-3.4-5.8-3.4-9.3c0-4,1.1-7.3,3.4-9.9c2.4-2.7,5.6-4.1,9.5-4.1c2.8,0,5.2,1,7.2,2.9c0.3,0.4,0.8,0.9,1.4,1.6
		c0.1,0.1,0.1,0.1,0.2,0.1c0.1,0,0.3-0.6,0.5-1.7c0.2-1.1,0.5-1.7,0.8-1.7c0.5,0,1.4,0.1,2.7,0.4C129.8,603,130.6,603.2,130.6,603.5
		L130.6,603.5z M123.7,614.8c0-2.2-0.7-4.1-2-5.7c-1.4-1.7-3.2-2.6-5.3-2.6c-2.2,0-4,0.8-5.4,2.5c-1.4,1.6-2.1,3.5-2.1,5.7
		c0,2.2,0.7,4.1,2.1,5.7c1.5,1.7,3.3,2.5,5.4,2.5c2.1,0,3.9-0.9,5.3-2.6C123,618.8,123.7,617,123.7,614.8L123.7,614.8z M161.1,610.1
		c0,2.5-0.1,4-0.2,4.4c-0.3,0.8-1.7,3.2-4.4,7.1c-2.7,4-4.4,6.1-4.9,6.4c-0.3,0.1-1,0.2-2.3,0.2c-1.2,0-2-0.1-2.4-0.2
		c-0.5-0.2-2.2-2.2-5-6.1c-2.7-3.8-4.2-6.1-4.6-7c-0.4-1.1-0.7-2.9-0.7-5.3c0-0.7,0-1.9,0.1-3.3c0-1.5,0.1-2.6,0.1-3.3
		c0-0.4,0.2-0.6,0.6-0.6c0.6,0,1.5,0,2.7,0.1c1.2,0.1,2.1,0.1,2.7,0.1c0.3,0,0.5,0.2,0.5,0.5c0,0.6,0,1.4-0.1,2.6
		c-0.1,1.1-0.1,2-0.1,2.5c0,1.7,0.1,3.2,0.3,4.6c0.1,0.7,1,2.4,2.8,5c1.7,2.7,2.8,4,3.2,4c0.4,0,1.4-1.3,2.9-3.9
		c1.6-2.6,2.4-4.2,2.5-4.8c0.1-0.9,0.2-2.5,0.2-4.7c0-0.6-0.1-1.5-0.2-2.7c-0.1-1.2-0.2-2.1-0.2-2.7c0-0.3,0.1-0.4,0.4-0.4
		c0.6,0,1.5,0,2.6-0.1c1.2-0.1,2-0.1,2.6-0.1C160.8,602.4,161.1,605,161.1,610.1L161.1,610.1z M191.4,613.5c0,1.3-0.6,2.2-1.7,2.7
		c-0.8,0.3-6.4,0.8-16.8,1.6c0.2,1.6,1.1,2.9,2.6,4.1c1.5,1.1,3,1.6,4.7,1.6c2.9,0,5.5-0.9,7.9-2.8c0.3-0.2,0.6-0.5,0.9-0.7
		c0.1,0,0.2,0,0.3,0.1c0,0,0.4,0.7,1,1.9c0.6,1.2,1,1.9,1,2c0,0.1-0.1,0.3-0.4,0.6c-2.7,2.8-6,4.2-10.2,4.2c-4.2,0-7.5-1.2-10-3.8
		c-2.5-2.5-3.7-5.8-3.7-10c0-3.7,1.2-7,3.6-9.7c2.5-2.9,5.6-4.3,9.2-4.3c3.4,0,6.2,1.2,8.5,3.7C190.3,607,191.4,610,191.4,613.5
		L191.4,613.5z M185,611.8c0-1.5-0.6-2.8-1.8-4c-1.2-1.2-2.5-1.7-4-1.7c-1.7,0-3.1,0.7-4.4,2c-1.3,1.3-1.9,2.8-1.9,4.5
		c0,0.4,0.3,0.6,1,0.6c2.7,0,5.9-0.3,9.6-0.8C184.5,612.2,185,612,185,611.8L185,611.8z M238.1,603.5c0,0.1,0,0.2-0.1,0.5
		c-0.7,4.1-1.1,7.7-1.1,10.7c0,0.2,0.2,4.2,0.7,12.1l0,0.4c0,0.5-0.2,0.8-0.7,0.8c-0.5,0-1.2,0.1-2.2,0.2c-1,0.1-1.7,0.2-2.2,0.2
		c-0.3,0-0.6-0.6-0.8-1.9c-0.2-1.3-0.4-1.9-0.5-1.9c-0.1,0-0.6,0.4-1.5,1.1c-1.1,0.9-2.1,1.5-3,2c-1.4,0.7-2.9,1.1-4.3,1.1
		c-3.5,0-6.4-1.4-8.8-4.2c-2.3-2.7-3.4-5.8-3.4-9.3c0-4,1.1-7.3,3.4-9.9c2.4-2.7,5.6-4.1,9.5-4.1c2.8,0,5.2,1,7.2,2.9
		c0.3,0.4,0.8,0.9,1.4,1.6c0.1,0.1,0.1,0.1,0.2,0.1c0.1,0,0.3-0.6,0.5-1.7c0.2-1.1,0.5-1.7,0.8-1.7c0.5,0,1.4,0.1,2.7,0.4
		C237.4,603,238.1,603.2,238.1,603.5L238.1,603.5z M231.2,614.8c0-2.2-0.7-4.1-2-5.7c-1.4-1.7-3.2-2.6-5.3-2.6c-2.2,0-4,0.8-5.4,2.5
		c-1.4,1.6-2.1,3.5-2.1,5.7c0,2.2,0.7,4.1,2.1,5.7c1.5,1.7,3.3,2.5,5.4,2.5c2.1,0,3.9-0.9,5.3-2.6
		C230.6,618.8,231.2,617,231.2,614.8L231.2,614.8z M284.7,622.1c0,2.5-0.1,4.3-0.4,5.4c-0.1,0.5-0.4,0.8-0.9,0.8
		c-1.3,0-3.3-0.1-6-0.2c-2.7-0.1-4.7-0.2-6-0.2c-1.3,0-3.1,0-5.7,0.1c-2.5,0.1-4.4,0.1-5.7,0.1c-0.5,0-0.7-0.2-0.7-0.7
		c0-2,0.1-4.9,0.2-8.9c0.1-4,0.2-6.9,0.2-8.9c0-2.1-0.1-5.2-0.3-9.4c-0.2-4.2-0.3-7.3-0.3-9.4c0-0.4,0.2-0.6,0.7-0.6
		c0.3,0,0.8,0,1.5,0.1c0.7,0.1,1.2,0.1,1.5,0.1c0.3,0,0.8,0,1.5-0.1c0.7-0.1,1.2-0.1,1.5-0.1c0.4,0,0.7,0.2,0.7,0.5
		c0,1.9-0.1,4.8-0.2,8.6c-0.1,3.8-0.2,6.7-0.2,8.7c0,0.9,0,2.4,0,4.3c0,1.9,0,3.3,0,4.3c0,4,0.2,6,0.5,6c6.7,0,11.7-0.2,15.1-0.5
		c0.2,0,0.6-0.1,1.2-0.2c0.5-0.1,1-0.2,1.2-0.2C284.5,621.6,284.7,621.8,284.7,622.1L284.7,622.1z M297.6,595.6
		c0,2.2-1.2,3.3-3.7,3.3c-2.5,0-3.8-1.1-3.8-3.3c0-1,0.4-1.8,1.2-2.5c0.7-0.6,1.6-0.9,2.6-0.9c1,0,1.9,0.3,2.6,0.9
		C297.2,593.8,297.6,594.6,297.6,595.6L297.6,595.6z M297.4,603c0,1.4-0.1,3.5-0.3,6.3c-0.2,2.8-0.3,4.9-0.3,6.3
		c0,1.3,0,3.3,0.1,5.9c0.1,2.6,0.1,4.6,0.1,5.9c0,0.4-0.2,0.6-0.5,0.6h-5.3c-0.4,0-0.6-0.4-0.6-1.1c0-1.2,0-3.1,0.1-5.6
		c0.1-2.5,0.1-4.4,0.1-5.6c0-1.4-0.1-3.5-0.3-6.3c-0.2-2.8-0.3-4.9-0.3-6.3c0-0.3,0.2-0.5,0.6-0.5c0.3,0,0.8,0,1.5,0.1
		c0.7,0.1,1.2,0.1,1.5,0.1c0.3,0,0.8,0,1.5-0.1c0.7-0.1,1.2-0.1,1.5-0.1C297.3,602.4,297.4,602.6,297.4,603L297.4,603z M319.5,593.3
		c0,0.2-0.2,0.3-0.5,0.4c-0.9,0.1-1.8,0.2-2.6,0.2c-1,0.1-1.8,0.5-2.4,1.1c-0.9,1-1.3,3.4-1.3,7.3c0.6,0,1.5,0,2.8,0.1
		c1.3,0,2.2,0.1,2.9,0.1c0.4,0,0.7,0.2,0.7,0.5c0,0.5,0,1.3,0.1,2.3c0,1,0,1.7,0,2.2c0,0.3-0.2,0.5-0.5,0.5c-0.6,0-1.6,0-2.9-0.1
		c-1.3-0.1-2.2-0.1-2.8-0.1v8.1c0,1.3,0,3.2,0.1,5.7c0.1,2.6,0.1,4.5,0.1,5.7c0,0.5-0.2,0.7-0.5,0.7h-5c-0.5,0-0.7-0.3-0.7-0.8
		v-18.6c0-0.5-0.6-0.7-1.7-0.7c-1.2,0-1.8,0-1.9-0.1c-0.1-0.1-0.1-0.4-0.1-1c0-0.4,0-1,0-1.8c0-0.8-0.1-1.4-0.1-1.8
		c0-0.4,1.1-0.6,3.4-0.8c-0.1-1.2-0.1-2.1-0.1-2.8c0-3.2,0.6-5.5,1.7-7c1-1.3,2.5-2.4,4.4-3.1c1.8-0.7,3.6-1,5.4-1
		c0.2,0,0.3,0.1,0.4,0.3c0,0,0.2,0.8,0.5,2.3C319.3,592.5,319.5,593.2,319.5,593.3L319.5,593.3z M347.5,613.5c0,1.3-0.6,2.2-1.7,2.7
		c-0.8,0.3-6.4,0.8-16.8,1.6c0.2,1.6,1.1,2.9,2.6,4.1c1.5,1.1,3,1.6,4.7,1.6c2.9,0,5.5-0.9,7.9-2.8c0.3-0.2,0.6-0.5,0.9-0.7
		c0.1,0,0.2,0,0.3,0.1c0,0,0.4,0.7,1,1.9c0.6,1.2,1,1.9,1,2c0,0.1-0.1,0.3-0.4,0.6c-2.7,2.8-6,4.2-10.2,4.2c-4.2,0-7.5-1.2-10-3.8
		c-2.5-2.5-3.7-5.8-3.7-10c0-3.7,1.2-7,3.6-9.7c2.5-2.9,5.6-4.3,9.2-4.3c3.4,0,6.2,1.2,8.5,3.7C346.4,607,347.5,610,347.5,613.5
		L347.5,613.5z M341.1,611.8c0-1.5-0.6-2.8-1.8-4c-1.2-1.2-2.5-1.7-4-1.7c-1.7,0-3.1,0.7-4.4,2c-1.3,1.3-1.9,2.8-1.9,4.5
		c0,0.4,0.3,0.6,1,0.6c2.7,0,5.9-0.3,9.6-0.8C340.5,612.2,341.1,612,341.1,611.8L341.1,611.8z M361.4,624c0,1.2-0.4,2.2-1.2,3.1
		c-0.8,0.9-1.8,1.3-3,1.3c-1.2,0-2.2-0.5-3-1.4c-0.8-0.9-1.1-1.9-1.1-3.1c0-1.2,0.4-2.2,1.2-3.1c0.8-0.9,1.8-1.3,2.9-1.3
		c1.2,0,2.2,0.4,3,1.3C361,621.8,361.4,622.8,361.4,624L361.4,624z M416.1,627.7c0,0.2-0.2,0.3-0.7,0.3c-0.3,0-0.8,0-1.5-0.1
		c-0.7-0.1-1.2-0.1-1.5-0.1c-0.3,0-0.9,0-1.5,0.1c-0.7,0.1-1.2,0.1-1.5,0.1c-0.5,0-1.1-1.4-1.9-4.1c-0.8-2.7-1.6-4.1-2.4-4.2
		c-0.7,0-2.4,0-5.2,0h-4.3c-3,0-4.7,0-5.1,0c-0.6,0.1-1.3,1.4-2.1,4.2c-0.7,2.7-1.3,4.1-1.7,4.1h-6.1c-0.4,0-0.5-0.1-0.5-0.4
		c0-0.2,0.1-0.6,0.4-1.2l6.6-18.1c0.6-1.5,2.3-5.7,5.1-12.6c0.5-1.2,1.2-2.9,2.1-5.2c0.2-0.7,0.4-1,0.7-1c0.3,0,0.8,0,1.5,0.1
		c0.7,0.1,1.2,0.1,1.5,0.1c0.3,0,0.8-0.1,1.5-0.1c0.7-0.1,1.1-0.2,1.4-0.2c0.2,0,0.4,0.3,0.7,1c0.4,1,2.6,6.4,6.4,16.3
		C413.4,620.5,416.1,627.5,416.1,627.7L416.1,627.7z M403.5,612.7c0-0.5-0.8-2.9-2.4-7c-1.6-4-2.7-6.7-3.3-8
		c-3.7,9.5-5.6,14.5-5.6,15c0,0.6,0.7,1,2.1,1.1c0.1,0,1,0,2.7,0h2.8C402.2,613.8,403.5,613.4,403.5,612.7L403.5,612.7z
		 M447.9,590.2c0,2.3-0.1,5.8-0.3,10.5c-0.2,4.6-0.3,8.1-0.3,10.4c0,7.1,0.1,12.5,0.5,16.2l0,0.4c0,0.2-0.2,0.3-0.7,0.4
		c-0.4,0-0.8,0-1.5,0c-0.8-0.1-1.1-0.1-1.1-0.1c-0.3,0-0.7,0-1.2,0.1c-0.5,0.1-0.9,0.1-1.2,0.1c-0.2,0-0.4-0.6-0.4-1.9
		c0-1.3-0.1-1.9-0.2-1.9c-0.1,0-0.2,0.2-0.4,0.4c-2.5,2.7-5.3,4-8.5,4c-3.6,0-6.6-1.4-9-4.2c-2.2-2.6-3.3-5.8-3.3-9.5
		c0-3.8,1.1-7.1,3.4-9.7c2.3-2.7,5.4-4.1,9.2-4.1c2.3,0,4.3,0.7,5.9,2c0.8,0.7,1.5,1.3,2.3,2c0.1-0.1,0.2-0.2,0.2-0.4v-8.8
		c0-0.6,0-1.5-0.1-2.7c-0.1-1.2-0.1-2.1-0.1-2.7c0-0.4,0.1-0.6,0.4-0.6c0.7,0,1.7-0.1,3-0.2c1.3-0.1,2.3-0.2,2.9-0.2
		C447.7,589.7,447.9,589.9,447.9,590.2L447.9,590.2z M441.1,614.9c0-2.2-0.7-4.1-2-5.7c-1.4-1.8-3.2-2.6-5.3-2.6
		c-2.2,0-4.1,0.9-5.5,2.6c-1.4,1.6-2.1,3.6-2.1,5.8c0,2.2,0.7,4,2.1,5.7c1.5,1.7,3.3,2.5,5.4,2.5c2.2,0,4-0.9,5.4-2.6
		C440.4,619,441.1,617.1,441.1,614.9L441.1,614.9z M479.9,614.8c0,3.8-1.2,7-3.7,9.7c-2.5,2.8-5.7,4.1-9.4,4.1
		c-3.7,0-6.9-1.4-9.4-4.1c-2.5-2.7-3.7-5.9-3.7-9.6c0-3.8,1.2-7,3.7-9.6c2.5-2.7,5.7-4.1,9.4-4.1c3.7,0,6.8,1.3,9.4,4.1
		C478.7,607.9,479.9,611.1,479.9,614.8L479.9,614.8z M474.2,614.9c0-2.2-0.7-4.1-2-5.6c-1.4-1.6-3.2-2.5-5.4-2.5
		c-2.2,0-4,0.8-5.4,2.4c-1.3,1.6-2,3.5-2,5.7c0,2.2,0.7,4,2.1,5.6c1.4,1.7,3.2,2.5,5.4,2.5c2.2,0,3.9-0.8,5.4-2.5
		C473.6,618.9,474.2,617,474.2,614.9L474.2,614.9z M513.6,615c0,3.6-1.2,6.8-3.5,9.5c-2.4,2.8-5.4,4.2-9,4.2c-2.2,0-4.2-0.7-5.9-2.1
		c-0.8-0.7-1.5-1.4-2.3-2.1c-0.1,0.1-0.2,0.2-0.2,0.4c0,0.1,0,1.1,0,3l0,7.6c0,0.6-0.2,0.9-0.6,0.9c-2.8,0-4.4,0-4.9-0.1
		c-0.4-0.1-0.6-0.3-0.6-0.7c0-2.3,0-5.8,0.1-10.4c0-4.6,0.1-8.1,0.1-10.4c0-4.2-0.3-8.2-0.8-11.9c0-0.2-0.1-0.4-0.1-0.4
		c0-0.2,0.1-0.3,0.3-0.4c0.7,0,1.7-0.1,3-0.3c1.8-0.3,2.8-0.5,3-0.5c0.3,0,0.5,0.5,0.6,1.6c0.1,0.7,0.1,1.4,0.1,2.1
		c0,0.1,0.1,0.3,0.2,0.4c0.1-0.1,0.3-0.2,0.4-0.4c2.5-2.6,5.1-3.9,7.7-3.9c3.6,0,6.6,1.4,9,4.2C512.4,608.2,513.6,611.3,513.6,615
		L513.6,615z M507.2,614.9c0-2.2-0.7-4.1-2-5.7c-1.4-1.8-3.2-2.6-5.3-2.6c-2.1,0-3.8,0.9-5.1,2.7c-1.2,1.6-1.8,3.5-1.8,5.7
		c0,2.2,0.6,4.1,1.9,5.7c1.4,1.8,3.2,2.6,5.3,2.6c2.1,0,3.8-0.9,5.2-2.7C506.6,618.8,507.2,617,507.2,614.9L507.2,614.9z M535.6,623
		c0,0.4,0,0.9-0.1,1.6c-0.1,0.8-0.1,1.4-0.2,1.6c0,0.3,0,0.5-0.1,0.6c-0.1,0.1-0.2,0.2-0.5,0.4c-1.5,0.7-3.8,1.1-7,1.1
		c-4.2,0-6.3-1.9-6.3-5.7c0-1.5,0-3.8,0.1-6.9c0.1-3.1,0.1-5.4,0.1-6.9c0-0.7-0.4-1.1-1.1-1.2c-0.7,0-1.3,0-2,0
		c-0.4-0.1-0.6-0.8-0.6-2.2c0-0.5,0-1.1,0.1-1.7c0.1-0.4,0.3-0.7,0.9-0.8c0.5,0,0.9,0,1.3,0c0.8,0,1.2-0.4,1.2-1.1
		c0-0.7,0-1.8-0.1-3.3c0-1.5-0.1-2.6-0.1-3.3c0-1.3,0.2-2,0.8-2c0.2,0,1.9,0.3,5.1,0.8c0.4,0.1,0.6,0.3,0.6,0.6c0,0.8-0.1,2-0.2,3.6
		c-0.1,1.6-0.2,2.8-0.2,3.6c0,0.5,0.2,0.8,0.7,0.8h6.5c0.3,0,0.5,0.1,0.5,0.3c0,0.2,0,0.6-0.1,1c-0.1,0.5-0.1,0.8-0.1,1.1
		c0,0.3,0,0.7,0,1.2c0,0.6,0,1,0,1.2c0,0.4-0.2,0.5-0.8,0.5c-0.7,0-1.8,0-3.3-0.1c-1.5-0.1-2.6-0.1-3.3-0.1c-0.1,0-0.2,0.5-0.3,1.5
		c-0.1,1.3-0.1,3.1-0.1,5.4v4c0,1.6,0.1,2.6,0.4,3.3c0.4,0.9,1.3,1.4,2.7,1.4c0.6,0,1.4-0.1,2.5-0.4c1.1-0.2,1.9-0.4,2.4-0.4
		C535.5,622.5,535.6,622.7,535.6,623z"/>
	<g>
		<path fill-rule="evenodd" clip-rule="evenodd" fill="#FFFFFF" d="M369.4,253.9c-3.6,0.9-5.9,5-5.1,9.1c0.8,4.1,4.3,6.8,7.9,5.9
			c3.6-0.9,5.9-5,5.1-9.1C376.5,255.6,373,253,369.4,253.9z"/>
		<path fill-rule="evenodd" clip-rule="evenodd" fill="#AD1F81" d="M263.8,232.4c10.4,5.4,17.2,10.1,25.3,18.3
			c8.1,8.2,8.2,19.3,1.6,27.3c-5,9.7-28.3,20.9-46.4,16.1c-8.8-2.3-14.9-11.3-11.7-22.2c2.7-9.1,10.5-25,13.7-31
			C249.4,234.9,253.4,227.1,263.8,232.4z"/>
		<circle fill-rule="evenodd" clip-rule="evenodd" fill="#000002" cx="264.5" cy="265" r="15.8"/>
		<circle fill-rule="evenodd" clip-rule="evenodd" fill="#FFFFFF" cx="270.2" cy="257.2" r="6.1"/>
		<path fill-rule="evenodd" clip-rule="evenodd" fill="#000002" d="M306.1,330.7c-5.1-3.2-10-5.5-14.2-10.1
			c-8.3-9.2-5.5-21.8,20.5-21.2c28.6-0.7,31.5,18,4.1,31.2C313.2,332,309.6,332,306.1,330.7z"/>
		<path fill-rule="evenodd" clip-rule="evenodd" fill="#FFFFFF" d="M329.5,317.8c-1.1-8.8-8.9-11.3-12-15.9
			C324.6,300.9,331.5,309.8,329.5,317.8z"/>
		<path fill-rule="evenodd" clip-rule="evenodd" fill="#AD1F81" d="M254.9,193.3c-2,13.7-51.3,28-62.3,62.1
			c-8.8,27.5-13.1,55.2-23.9,82.1c-15,24.9-19.3,11.8-20.7-13.4c-5.2-32-29.7-81.8,6.4-111.2c11-8.9,24.2-4.4,92.8-29.8
			C257,181.3,256.2,186.5,254.9,193.3z"/>
		<path fill-rule="evenodd" clip-rule="evenodd" fill="#00A5B0" d="M426.4,291.1c0-42.3-28.6-78.6-69.4-93.9l-17,27.5l0.1-32.5
			c-6.1-1.3-12.4-2.2-18.8-2.6l-0.1-21.5c71.9,3.6,129,57.4,129,123.1c0,65.5-56.6,119-128.2,123l-0.1-21.5
			C380.4,388.7,426.4,344.7,426.4,291.1L426.4,291.1z M356.9,197.1c-3.2-1.2-6.4-2.3-9.7-3.2C350.5,194.9,353.9,196.1,356.9,197.1z"
			/>
		<path fill-rule="evenodd" clip-rule="evenodd" fill="#AD1F81" d="M298.4,190.2c-55.2,6.7-97.8,49.5-97.8,100.9
			c0,51.3,41.8,94.3,96.3,101.6l-0.2,21.6c-67.6-7.5-119.9-59.9-119.9-123.1c0-63.2,53.3-116.2,121.8-122.9L298.4,190.2z"/>
		<path fill-rule="evenodd" clip-rule="evenodd" fill="#00A5B0" d="M431.4,235.6c-19.5-16.7-39-33.5-58.5-50.2
			c15.5-15.5,37.2-25.4,61.5-29.8C441,183.5,439.7,211.7,431.4,235.6z"/>
		<path fill-rule="evenodd" clip-rule="evenodd" fill="#00A5B0" d="M336.5,191.4l-14.7,32.7l-0.4-7.8l-0.1-26.9
			C325.1,188.2,333.6,189.1,336.5,191.4z"/>
		<g>
			<path fill-rule="evenodd" clip-rule="evenodd" fill="#FFFFFF" d="M371.3,254.3c-3.6,0.9-5.9,5-5.1,9.1c0.8,4.1,4.3,6.8,7.9,5.9
				c3.6-0.9,5.9-5,5.1-9.1C378.4,256,374.9,253.4,371.3,254.3z"/>
			<circle fill-rule="evenodd" clip-rule="evenodd" fill="#000002" cx="361.6" cy="265" r="15.8"/>
			<circle fill-rule="evenodd" clip-rule="evenodd" fill="#FFFFFF" cx="367.3" cy="257.2" r="6.1"/>
		</g>
		<g>
			<path fill-rule="evenodd" clip-rule="evenodd" fill="#00A5B0" d="M466,287.4l-106,16c-2.4,0.4-4,2.6-3.4,4.8l0,0
				c0.6,2.3,3,3.9,5.5,3.5l106-16c2.4-0.4,4-2.6,3.4-4.8l0,0C470.9,288.6,468.4,287,466,287.4z"/>
			<path fill-rule="evenodd" clip-rule="evenodd" fill="#00A5B0" d="M463.5,318.2H359.9c-2.4,0-4.3,1.9-4.3,4.3l0,0
				c0,2.3,2,4.3,4.3,4.3h103.5c2.4,0,4.3-1.9,4.3-4.3l0,0C467.8,320.1,465.9,318.2,463.5,318.2z"/>
			<path fill-rule="evenodd" clip-rule="evenodd" fill="#00A5B0" d="M360.9,334.5l94.5,13.2c2.2,0.3,3.6,2.4,3.2,4.8l0,0
				c-0.4,2.3-2.5,4-4.7,3.6l-94.5-13.2c-2.2-0.3-3.6-2.4-3.2-4.8l0,0C356.6,335.9,358.7,334.2,360.9,334.5z"/>
		</g>
		<circle fill-rule="evenodd" clip-rule="evenodd" fill="#AD1F81" cx="247.3" cy="347.4" r="6.3"/>
		<circle fill-rule="evenodd" clip-rule="evenodd" fill="#AD1F81" cx="266" cy="328.9" r="6.3"/>
		<circle fill-rule="evenodd" clip-rule="evenodd" fill="#AD1F81" cx="238.4" cy="322.3" r="6.3"/>
	</g>
</g>
</svg>
